<svg width="165" height="165" viewBox="0 0 165 165" fill="none" xmlns="http://www.w3.org/2000/svg">
<g clip-path="url(#clip0_89_115)">
<path d="M82.5 144.145C116.546 144.145 144.145 116.546 144.145 82.5C144.145 48.4545 116.546 20.8551 82.5 20.8551C48.4545 20.8551 20.8551 48.4545 20.8551 82.5C20.8551 116.546 48.4545 144.145 82.5 144.145Z" fill="#5EEAD4"/>
<path d="M36.5859 36.5859C24.3217 48.85 17.5677 65.1557 17.5677 82.5C17.5677 99.8444 24.3217 116.15 36.5859 128.414C48.85 140.678 65.156 147.432 82.5 147.432C99.844 147.432 116.15 140.678 128.414 128.414C140.678 116.15 147.432 99.844 147.432 82.5C147.432 65.156 140.678 48.85 128.414 36.5859C116.149 24.3217 99.8443 17.5677 82.5 17.5677C65.1557 17.5677 48.85 24.3217 36.5859 36.5859ZM140.859 82.5C140.859 98.0883 134.788 112.743 123.766 123.766C112.743 134.788 98.0883 140.859 82.5 140.859C66.9117 140.859 52.2567 134.788 41.2342 123.766C30.2118 112.743 24.1412 98.0883 24.1412 82.5C24.1412 66.9117 30.2118 52.2567 41.2342 41.2342C52.2567 30.2118 66.9117 24.1413 82.5 24.1413C98.0883 24.1413 112.743 30.2118 123.766 41.2342C134.788 52.2567 140.859 66.9117 140.859 82.5Z" fill="#292524"/>
<path d="M63.9771 60.5482C69.2732 55.789 73.4962 55.9898 74.7031 54.7829C75.9097 53.5763 75.0383 51.2303 74.1665 50.3588C71.9545 48.1468 64.9153 51.8335 59.8879 56.4593L57.944 54.5154C57.2734 53.8448 55.8657 54.0459 55.1284 54.7829C54.2566 55.6546 54.1899 56.9282 54.8606 57.5989L56.9385 59.6768C51.5084 65.9114 47.8213 74.9612 56.2679 83.4078C64.8485 91.9885 73.1614 87.6985 81.1387 83.8771L100.646 103.385C92.1328 111.497 85.3624 107.675 83.7533 109.284C82.7478 110.29 83.1497 112.703 84.2225 113.776C86.636 116.189 96.3565 115.988 104.87 107.608L107.283 110.021C107.954 110.692 109.227 110.625 110.099 109.753C110.836 109.016 111.037 107.608 110.367 106.938L107.752 104.324C113.584 96.7483 114.121 87.8996 106.009 79.7881C96.825 70.6039 88.1774 73.6206 80.6019 77.1739L63.9771 60.5482ZM60.0893 78.782C55.1284 73.8211 57.2063 68.1231 61.0951 63.5646L76.6477 79.1172C70.7483 81.9331 65.3187 84.0114 60.0893 78.782ZM102.121 84.4803C107.082 89.4413 107.351 94.9382 103.395 100.368L85.0939 82.0666C90.7925 79.7208 96.2894 78.6483 102.121 84.4803Z" fill="#292524"/>
<path d="M78.6647 6.66478C78.7172 6.66478 78.7704 6.66349 78.8242 6.66091C80.0385 6.60355 81.2751 6.5739 82.5003 6.5739C84.3153 6.5739 85.7871 5.10211 85.7871 3.28711C85.7871 1.47211 84.315 0 82.5 0C81.1707 0 79.8284 0.0319043 78.51 0.0950684C76.6966 0.181758 75.2974 1.72187 75.3841 3.53493C75.4682 5.2945 76.9213 6.66478 78.6647 6.66478Z" fill="#292524"/>
<path d="M158.296 49.8709C154.721 41.5781 149.868 34.0209 143.842 27.3352H145.104C146.919 27.3352 148.391 25.8634 148.391 24.0484C148.391 22.2334 146.919 20.7616 145.104 20.7616H135.841C134.026 20.7616 132.555 22.2334 132.555 24.0484V33.3113C132.555 35.1263 134.026 36.5981 135.841 36.5981C137.656 36.5981 139.128 35.1263 139.128 33.3113V31.922C151.609 45.8474 158.427 63.6114 158.427 82.4997C158.427 124.366 124.366 158.426 82.5003 158.426C40.6342 158.426 6.57357 124.366 6.57357 82.5C6.57357 48.2818 29.6117 18.1429 62.5975 9.2081C64.3497 8.7334 65.3851 6.92807 64.9107 5.17623C64.436 3.42407 62.6304 2.38734 60.8789 2.86301C25.0342 12.5722 0 45.3202 0 82.5C0 104.537 8.58129 125.254 24.1638 140.836C39.746 156.419 60.4632 165 82.5 165C104.537 165 125.254 156.419 140.836 140.836C156.419 125.254 165 104.537 165 82.5C165 71.1701 162.744 60.1921 158.296 49.8709Z" fill="#292524"/>
</g>
<defs>
<clipPath id="clip0_89_115">
<rect width="165" height="165" fill="white"/>
</clipPath>
</defs>
</svg>
