<svg width="239" height="239" viewBox="0 0 239 239" fill="none" xmlns="http://www.w3.org/2000/svg">
<path d="M119.5 93.7079C118.009 93.7018 116.534 94.0071 115.168 94.6042L86.1894 106.455C85.4246 106.777 84.7713 107.317 84.311 108.007C83.8506 108.698 83.6035 109.508 83.6002 110.338V135.881C83.6002 158.686 109.442 173.524 119.5 173.524C129.558 173.524 155.4 158.586 155.4 135.881V110.338C155.397 109.508 155.149 108.698 154.689 108.007C154.229 107.317 153.575 106.777 152.811 106.455L123.832 94.6042C122.473 93.9844 120.993 93.6781 119.5 93.7079Z" stroke="black" stroke-width="10" stroke-linecap="round" stroke-linejoin="round"/>
<path d="M94.0067 22.4063H144.944C146.436 22.3931 147.917 22.6757 149.299 23.2379C150.682 23.8 151.94 24.6305 153 25.6813C154.06 26.7322 154.902 27.9826 155.476 29.3605C156.05 30.7383 156.346 32.2163 156.346 33.709V41.0781H169.292C173.211 41.0776 176.973 42.6171 179.767 45.3648C182.561 48.1125 184.164 51.8483 184.229 55.7667V201.656C184.229 205.618 182.655 209.417 179.854 212.219C177.053 215.02 173.253 216.594 169.292 216.594H69.7083C65.7467 216.594 61.9473 215.02 59.1459 212.219C56.3446 209.417 54.7708 205.618 54.7708 201.656V56.3642C54.7246 54.3983 55.0669 52.4427 55.7782 50.6094C56.4895 48.7762 57.5558 47.1014 58.9158 45.6812C60.2759 44.261 61.903 43.1233 63.7038 42.3334C65.5045 41.5435 67.4436 41.1169 69.4096 41.0781H82.6542V33.8085C82.6409 30.8062 83.8174 27.9209 85.9264 25.784C88.0353 23.6471 90.9049 22.4326 93.9071 22.4063H94.0067Z" stroke="black" stroke-width="10" stroke-linecap="round" stroke-linejoin="round"/>
<path d="M54.7708 77.5754C70.0569 64.7292 82.0567 59.75 95.8988 59.75C130.255 59.75 134.039 82.5048 162.271 82.5048C180.395 82.5048 184.279 72.5465 184.279 72.5465" stroke="black" stroke-width="10" stroke-linecap="round" stroke-linejoin="round"/>
<path d="M115.208 114.094C112.643 114.105 110.188 115.133 108.38 116.952C106.572 118.771 105.559 121.232 105.562 123.797C105.559 126.362 106.572 128.823 108.38 130.642C110.188 132.461 112.643 133.489 115.208 133.5H118.5" stroke="black" stroke-width="10" stroke-linecap="round" stroke-linejoin="round"/>
<path d="M118.5 133.5H121.792C124.357 133.511 126.812 134.539 128.62 136.358C130.428 138.177 131.441 140.638 131.438 143.203C131.439 144.475 131.191 145.736 130.705 146.912C130.22 148.088 129.508 149.157 128.61 150.058C127.712 150.959 126.645 151.675 125.47 152.163C124.295 152.652 123.035 152.904 121.763 152.906" stroke="black" stroke-width="10" stroke-linecap="round" stroke-linejoin="round"/>
<path d="M130.546 117.371C127.873 115.129 124.983 114.094 118.5 114.094H115.208" stroke="black" stroke-width="10" stroke-linecap="round" stroke-linejoin="round"/>
<path d="M106.454 149.629C109.128 151.871 112.017 152.906 118.5 152.906H121.792" stroke="black" stroke-width="10" stroke-linecap="round" stroke-linejoin="round"/>
</svg>
